<?xml version="1.0" encoding="utf-8"?>
<!-- Generator: Adobe Illustrator 18.1.1, SVG Export Plug-In . SVG Version: 6.00 Build 0)  -->
<svg version="1.1" id="Capa_1" xmlns="http://www.w3.org/2000/svg" xmlns:xlink="http://www.w3.org/1999/xlink" x="0px" y="0px"
	 viewBox="0 0 46.1 46" enable-background="new 0 0 46.1 46" xml:space="preserve">
<rect x="-1019.9" y="-1041.6" fill="none" width="292.3" height="83.9"/>
<text transform="matrix(1 0 0 1 -1002.2435 -1030.9714)"><tspan x="0" y="0" fill="#FFFFFF" font-family="'Georgia-Italic'" font-size="14">Éccora un laboratorio y boticario creado  </tspan><tspan x="8.6" y="16.8" fill="#FFFFFF" font-family="'Georgia-Italic'" font-size="14">pensando en  lo natural que ha creado </tspan><tspan x="-6.9" y="33.6" fill="#FFFFFF" font-family="'Georgia-Italic'" font-size="14">formulas originales, 100% naturales, 100%  </tspan><tspan x="16.2" y="50.4" fill="#FFFFFF" font-family="'Georgia-Italic'" font-size="14">sostenibles y  100%   mercado justo!</tspan></text>
<g>
	<g>
		<line fill="none" stroke="#FFFFFF" stroke-width="2" stroke-miterlimit="10" x1="-1016.3" y1="-957.7" x2="-1014.3" y2="-957.7"/>
		
			<line fill="none" stroke="#FFFFFF" stroke-width="2" stroke-miterlimit="10" stroke-dasharray="4.01,4.01" x1="-1010.3" y1="-957.7" x2="-731.6" y2="-957.7"/>
		<line fill="none" stroke="#FFFFFF" stroke-width="2" stroke-miterlimit="10" x1="-729.6" y1="-957.7" x2="-727.6" y2="-957.7"/>
	</g>
</g>
<path fill="none" stroke="#FFFFFF" stroke-miterlimit="10" d="M-514.4-588.8c1.2,0.2,2-1.6,1.1-2.4c-0.9-0.8-2.6,0-2.5,1.2"/>
<path fill="#292E85" d="M20,30.2c0.2,0.3,0.4,0.6,0.6,0.8l-5.3-19.4c-0.1,0.2-0.1,0.4-0.2,0.6L20,30.2z M17.2,15.2l4.9,17.7
	c0.1,0.1,0.2,0.2,0.2,0.2l0,0l0.2,0.2l-4.7-17.2C17.6,15.8,17.4,15.5,17.2,15.2C17.2,15.2,17.2,15.2,17.2,15.2 M23,33.7l0.3,0.2
	c0.1,0.3,0.2,0.6,0.2,0.8c0,0,0-0.1,0-0.2c0-0.1,0-0.3,0-0.5l0,0l0,0l-4.5-16.4c-0.2-0.3-0.4-0.5-0.6-0.8L23,33.7z M23.1,33.3
	c0,0,0-0.1-0.1-0.1c-0.2-0.4-0.3-0.8-0.3-1.2C22.8,32.4,23,32.8,23.1,33.3 M21.1,31.8c0.2,0.2,0.3,0.4,0.5,0.6l-5.1-18.6
	c-0.6-1.4-0.8-2.8-0.9-3.3l0-0.2c0,0.1-0.1,0.4-0.1,0.7L21.1,31.8z M15.9,17.9c0-0.4,0-0.6,0-0.7c0-0.1,0-0.1,0-0.1s0,0,0,0.1
	c0,0.1,0,0.5,0.1,1.2l2.5,9c0.2,0.4,0.3,0.8,0.5,1.2c0.1,0.2,0.2,0.4,0.3,0.6l-4.5-16.2c-0.1,0.2-0.1,0.4-0.2,0.6L15.9,17.9z
	 M17.4,24.5l-0.8-3C16.8,22.5,17.1,23.5,17.4,24.5 M13.3,16.9c-0.1,0.2-0.1,0.3-0.2,0.5l4,14.6c0.1,0.1,0.3,0.3,0.4,0.4L13.3,16.9z
	 M12.5,19c-0.1,0.2-0.1,0.4-0.2,0.6l2.9,10.4c0.2,0.2,0.3,0.4,0.5,0.6L12.5,19z M12.9,17.9c-0.1,0.2-0.1,0.4-0.2,0.5l3.5,12.7
	c0.2,0.2,0.3,0.3,0.5,0.4L12.9,17.9z M12.2,20.3c0,0.3-0.1,0.6-0.1,0.8l2,7.4c0.2,0.3,0.4,0.6,0.6,0.9L12.2,20.3z M16,20.8
	c0-0.6-0.1-1.1-0.1-1.6L14.5,14c-0.1,0.2-0.1,0.3-0.2,0.5L16,20.8z M12,22.3c0.1,1.6,0.5,3.2,1.3,4.9L12,22.3z M28.4,23.6
	c0.1-0.1,0.2-0.2,0.3-0.2L28,21c-0.1,0-0.2,0.1-0.3,0.1L28.4,23.6z M27.8,24.1c0.1-0.1,0.2-0.2,0.3-0.2l-0.7-2.7
	c-0.1,0-0.2,0.1-0.3,0.1L27.8,24.1z M27.3,24.5c0.1-0.1,0.2-0.2,0.3-0.2l-0.8-2.9c-0.1,0-0.2,0.1-0.3,0.1L27.3,24.5z M13.7,15.9
	c-0.1,0.2-0.1,0.3-0.2,0.5L18,32.7c0.1,0.1,0.3,0.2,0.4,0.3L13.7,15.9z M26.7,25.1c0.1-0.1,0.2-0.2,0.3-0.3l-0.9-3.1
	c-0.1,0-0.2,0.1-0.3,0.2L26.7,25.1z M23.7,31.3c0-0.2,0.1-0.5,0.1-0.7l-2.7-9.7c-0.2-0.3-0.4-0.6-0.6-0.9L23.7,31.3z M29.8,22.5
	l-0.5-1.9c-0.1,0-0.2,0-0.3,0.1l0.6,2C29.6,22.7,29.7,22.6,29.8,22.5 M28.9,23.2c0.1-0.1,0.2-0.1,0.3-0.2l-0.6-2.1
	c-0.1,0-0.2,0.1-0.3,0.1L28.9,23.2z M23.2,24.7l1.1,4c0.1-0.2,0.1-0.3,0.2-0.5l-1.1-4C23.4,24.4,23.3,24.6,23.2,24.7 M22.2,22.7
	c-0.1-0.2-0.2-0.5-0.3-0.7l2.2,7.8c0.1-0.2,0.1-0.4,0.2-0.6L23,25.1c0,0,0,0.1-0.1,0.1C22.8,24.5,22.6,23.6,22.2,22.7 M24.8,27.8
	c0.1-0.1,0.1-0.3,0.2-0.4l-1-3.8c-0.1,0.1-0.2,0.2-0.3,0.3L24.8,27.8z M26.2,25.6c0.1-0.1,0.2-0.2,0.3-0.3L25.6,22
	c-0.1,0.1-0.2,0.1-0.3,0.2L26.2,25.6z M25.2,27c0.1-0.1,0.2-0.2,0.2-0.4l-1-3.6c-0.1,0.1-0.2,0.2-0.3,0.3L25.2,27z M25.7,26.3
	c0.1-0.1,0.2-0.2,0.3-0.3l-1-3.5c-0.1,0.1-0.2,0.2-0.3,0.2L25.7,26.3z M23.4,32.9C23.5,32.9,23.5,32.9,23.4,32.9
	c0-0.3,0.1-0.6,0.1-0.9L20,19.1c-0.2-0.3-0.4-0.5-0.6-0.8L23.4,32.9z M29.8,22.6c-0.1,0.1-0.2,0.2-0.3,0.3l1.1,3.9
	c0.1-0.2,0.1-0.4,0.2-0.6L29.8,22.6z M29.3,23.1c-0.1,0.1-0.2,0.2-0.3,0.3l1.2,4.3c0.1-0.1,0.2-0.3,0.2-0.4L29.3,23.1z M30.5,20.4
	c-0.1,0-0.2,0-0.3,0.1l1.1,3.9c0.1-0.2,0.1-0.4,0.2-0.6L30.5,20.4z M29.9,20.5c-0.1,0-0.2,0-0.3,0.1l0.5,1.8c0,0,0.1,0,0.1-0.1
	c0,0,0.1,0,0.1,0s0,0-0.1,0c0,0,0,0-0.1,0.1l0.9,3.2c0.1-0.2,0.1-0.4,0.2-0.6L29.9,20.5z M27.7,24.7c-0.1,0.1-0.2,0.2-0.2,0.3
	l1.3,4.6c0.1-0.1,0.2-0.2,0.3-0.3L27.7,24.7z M28.2,24.2c-0.1,0.1-0.2,0.2-0.3,0.3l1.3,4.6c0.1-0.1,0.2-0.2,0.3-0.3L28.2,24.2z
	 M29.9,28.1l-1.2-4.4c-0.1,0.1-0.1,0.1-0.2,0.2c0,0-0.1,0.1-0.1,0.1l1.3,4.6C29.8,28.3,29.9,28.2,29.9,28.1 M31.8,20.1
	c-0.1,0-0.1,0-0.2,0.1c0,0-0.1,0-0.1,0L32,22c0.1-0.2,0.1-0.3,0.2-0.5L31.8,20.1z M33.7,19.4c-0.1,0-0.2,0.1-0.3,0.1l0.1,0.3
	c0.1-0.1,0.2-0.2,0.3-0.3L33.7,19.4z M19.2,33.5L17.4,27c-0.2-0.6-0.5-1.3-0.7-1.9c-0.2-0.7-0.4-1.4-0.5-2.2l-2.2-7.9
	c-0.1,0.2-0.1,0.3-0.2,0.5l4.9,17.9C18.9,33.4,19.1,33.4,19.2,33.5 M34,19.3L34,19.3C34,19.3,34,19.2,34,19.3L34,19.3 M33.1,19.6
	c-0.1,0-0.2,0.1-0.3,0.1l0.2,0.7c0.1-0.1,0.2-0.2,0.3-0.3L33.1,19.6z M27.2,25.3c-0.1,0.1-0.2,0.2-0.3,0.3l1.2,4.4
	c0.1-0.1,0.2-0.1,0.3-0.2L27.2,25.3z M32.7,20.7l-0.2-0.9c-0.1,0-0.2,0.1-0.3,0.1l0.3,1.1C32.5,21,32.6,20.9,32.7,20.7 M31.2,20.2
	c-0.1,0-0.2,0-0.3,0.1l0.8,2.8c0.1-0.2,0.1-0.4,0.2-0.6L31.2,20.2z M22,33.9c-0.2-0.2-0.3-0.3-0.5-0.5l0.4,1.5
	c0.1,0.1,0.3,0.1,0.4,0.2L22,33.9z M23,34.9c-0.2-0.2-0.3-0.3-0.4-0.4c0,0,0,0-0.1-0.1l0.2,0.9c0.1,0.1,0.3,0.1,0.4,0.2L23,34.9z
	 M23.9,35.8c-0.2-0.1-0.3-0.3-0.5-0.4l0.1,0.3c0.1,0.1,0.3,0.2,0.4,0.2L23.9,35.8z M26.7,26c-0.1,0.1-0.2,0.2-0.2,0.4l1.1,4.1
	c0.1-0.1,0.2-0.1,0.3-0.2L26.7,26z M21.1,32.8c-0.2-0.2-0.3-0.4-0.5-0.6l0.6,2.2c0.1,0.1,0.3,0.1,0.4,0.2L21.1,32.8z M24.4,36.1
	C24.4,36.1,24.3,36.1,24.4,36.1L24.4,36.1c0.1,0.1,0.2,0.1,0.3,0.2C24.6,36.3,24.5,36.2,24.4,36.1 M20.8,34.3L20,31.6
	c-0.2-0.2-0.4-0.5-0.6-0.7l0.9,3.3c0,0,0,0,0,0C20.5,34.2,20.7,34.2,20.8,34.3 M18.9,30c-0.2-0.4-0.4-0.7-0.7-1.1l1.4,4.9
	c0.1,0.1,0.3,0.1,0.4,0.2L18.9,30z M25.3,28.3c0,0.1-0.1,0.2-0.1,0.3c0,0.1-0.1,0.1-0.1,0.2l0.7,2.6c0.1-0.1,0.2-0.1,0.3-0.2
	L25.3,28.3z M25.7,27.5c-0.1,0.1-0.2,0.3-0.2,0.4l0.9,3.2c0.1,0,0.2-0.1,0.3-0.2L25.7,27.5z M26.2,26.8c-0.1,0.1-0.2,0.2-0.2,0.4
	l1,3.7c0.1,0,0.2-0.1,0.3-0.1L26.2,26.8z M24.8,29.2c-0.1,0.2-0.1,0.4-0.2,0.5l0.6,2c0.1-0.1,0.2-0.1,0.3-0.2L24.8,29.2z M24.5,30.3
	c-0.1,0.2-0.1,0.5-0.2,0.7l0.3,1.3c0.1-0.1,0.2-0.2,0.3-0.3L24.5,30.3z M24.2,31.8c0,0.1,0,0.3,0,0.4l0,0l0,0.7l0.1,0.2
	c0.1-0.1,0.1-0.3,0.2-0.5L24.2,31.8z"/>
</svg>
